<svg width="48" height="56" viewBox="0 0 48 56" fill="none" xmlns="http://www.w3.org/2000/svg">
<g filter="url(#filter0_ddd_5_29)">
<path d="M32.657 0.295895C30.4312 0.552926 27.2812 2.51621 25.7172 4.61621C24.8148 5.81933 24.2843 6.96777 23.825 8.69589L23.5953 9.55996L23.6062 10.4787C23.6172 10.9818 23.6445 11.4521 23.6718 11.5287C23.7429 11.7092 23.8797 11.7365 24.8422 11.742C25.6406 11.7475 25.6898 11.742 26.3734 11.5396C28.2 11.0092 29.5398 10.2107 30.4914 9.07871C30.7211 8.7998 31.0656 8.42793 31.2461 8.24199C31.8476 7.65136 32.6187 6.33886 33.0453 5.20136C33.4718 4.05839 33.6632 2.99746 33.7179 1.48808L33.7507 0.520113L33.6086 0.377926C33.45 0.219332 33.3625 0.213863 32.657 0.295895Z" fill="#717171"/>
<path d="M32.7147 0.792548L32.7144 0.792594C31.7021 0.909488 30.43 1.4254 29.2032 2.18936C27.9811 2.95047 26.8542 3.92663 26.1182 4.91487L26.1172 4.91621C25.2602 6.05883 24.7543 7.14605 24.3082 8.82435L24.0961 9.62235L24.1061 10.4703C24.1115 10.7161 24.1208 10.9518 24.1319 11.1331C24.1339 11.1657 24.136 11.1961 24.138 11.224C24.2724 11.2344 24.4885 11.24 24.845 11.242L24.8456 11.242C25.2555 11.2448 25.4294 11.2436 25.5857 11.223C25.7373 11.2031 25.8821 11.1636 26.2315 11.0602L26.2315 11.0602L26.234 11.0595C27.9921 10.5489 29.2355 9.79481 30.1071 8.75884C30.3485 8.46585 30.702 8.0846 30.8873 7.89375L30.8872 7.89365L30.8958 7.88521C31.4261 7.36447 32.1644 6.12596 32.5768 5.02654C32.9807 3.94452 33.165 2.93864 33.2182 1.47063C33.2182 1.47041 33.2183 1.4702 33.2183 1.46998L33.2429 0.743757C33.214 0.744226 33.1743 0.746056 33.1198 0.750298C33.0205 0.758018 32.8914 0.772008 32.7147 0.792548ZM23.9893 11.2038C23.9893 11.2038 23.9897 11.204 23.9907 11.2043L23.9893 11.2038ZM24.1565 11.4095C24.1565 11.4095 24.1562 11.408 24.1557 11.4053C24.1562 11.4083 24.1565 11.4096 24.1565 11.4095Z" stroke="black"/>
</g>
<g filter="url(#filter1_ddd_5_29)">
<path d="M32.1484 11.5998C31.0656 11.6545 28.1508 12.4639 26.0562 13.2842C24.7875 13.7818 24.7875 13.7818 24.5359 13.8256C24.0984 13.8967 23.0265 13.585 21.1836 12.8412C20.2047 12.4529 19.1984 12.1576 17.7109 11.8185C17.0875 11.6818 16.0539 11.6654 15.6054 11.7912C15.425 11.8404 14.8562 11.9553 14.3422 12.0428C13.2375 12.2396 12.614 12.431 11.7828 12.8412C9.27263 14.0662 7.56091 15.8271 6.20466 18.5834C5.6031 19.7975 5.16013 20.9842 4.832 22.2475C4.34528 24.1232 4.33435 27.7217 4.81013 29.9037C4.86481 30.1717 4.91403 30.4889 4.91403 30.6146C4.91403 30.8771 4.96325 31.074 5.42263 32.8842C5.84919 34.5576 5.80544 34.4209 6.62028 36.4662C7.76325 39.3373 8.12419 39.9717 10.4593 43.1928C11.4164 44.5107 11.9031 45.1123 12.6086 45.8287C13.3468 46.5834 13.9429 47.0209 14.7851 47.4365C15.7367 47.9014 16.1523 48.0053 17.0273 47.9998C18.1484 47.9998 19.0508 47.7701 20.7679 47.0482C21.8508 46.5943 21.9218 46.5725 23.8906 46.1678C24.4812 46.042 25.0281 46.0529 25.8593 46.1896C26.1437 46.2334 26.5703 46.299 26.8 46.3318C27.2648 46.3975 27.7351 46.5506 28.9492 47.0373C30.4148 47.6279 31.4484 47.8904 32.5312 47.956C34.1062 48.0545 35.6265 47.3545 37.2508 45.7959C38.9078 44.1935 40.4554 42.0006 42.0195 39.042C42.4406 38.2435 43.1133 36.6084 43.2281 36.1162C43.2773 35.9193 43.3593 35.6732 43.4195 35.5748C43.4742 35.4764 43.5234 35.3396 43.5234 35.2795C43.5234 35.0826 43.1242 34.7709 42.4187 34.4154C41.0898 33.7318 39.7828 32.5615 38.9023 31.2435C38.2734 30.2975 37.639 28.881 37.4804 28.0443C37.2125 26.6662 37.1359 25.1568 37.289 24.1068C37.3273 23.8334 37.464 23.2592 37.5953 22.8217C38.1586 20.924 38.5468 20.1639 39.4273 19.2232C39.6953 18.9443 39.914 18.6873 39.914 18.6654C39.914 18.5725 41.2539 17.4514 41.582 17.2709C41.7625 17.167 41.9922 17.0084 42.0906 16.91C42.3914 16.6146 42.3476 16.4998 41.5929 15.6139C40.5812 14.4271 39.307 13.4537 37.8086 12.7264C36.8734 12.2725 36.2281 12.0482 35.3258 11.8623C34.4015 11.6654 33.0234 11.5506 32.1484 11.5998Z" fill="#717171"/>
<path d="M32.1736 12.0992L32.1765 12.099C33.0033 12.0525 34.3369 12.1629 35.2216 12.3513L35.2248 12.352C36.0819 12.5286 36.6879 12.7382 37.5902 13.1762C39.0305 13.8753 40.2482 14.8073 41.2123 15.9381C41.4013 16.1599 41.5366 16.3229 41.6321 16.4496C41.6707 16.5007 41.6989 16.5411 41.7196 16.5726C41.6526 16.6312 41.489 16.7471 41.3359 16.8356C41.2156 16.9027 41.0439 17.0282 40.8784 17.1553C40.7 17.2923 40.4963 17.4568 40.3042 17.6174C40.1126 17.7776 39.928 17.938 39.7889 18.0667C39.7204 18.1301 39.6564 18.1918 39.6069 18.2449C39.5831 18.2703 39.5538 18.3032 39.5273 18.3389C39.5145 18.3562 39.4942 18.385 39.4751 18.4215L39.4747 18.4223C39.4741 18.4234 39.4735 18.4246 39.4728 18.4259C39.4548 18.4484 39.4281 18.4803 39.3932 18.5207C39.3111 18.6155 39.1953 18.7431 39.0668 18.8768L39.0622 18.8815L39.0623 18.8815C38.1082 19.9008 37.6908 20.7428 37.1162 22.6786C36.9819 23.1263 36.8376 23.7264 36.7941 24.0361C36.6308 25.1572 36.7145 26.7243 36.9894 28.1385C37.1645 29.0606 37.8333 30.5386 38.4859 31.5203L38.4866 31.5213C39.4125 32.9073 40.7829 34.1362 42.19 34.86L42.1937 34.862C42.5326 35.0327 42.7763 35.1825 42.9277 35.3008C42.9464 35.3155 42.9628 35.3289 42.977 35.3411C42.9237 35.4358 42.8794 35.5524 42.8474 35.6446C42.8082 35.7574 42.7712 35.8824 42.743 35.9949L42.7411 36.0026L42.7412 36.0026C42.6945 36.2028 42.5139 36.6978 42.2764 37.2736C42.0439 37.8374 41.7774 38.4292 41.5775 38.8083C40.0282 41.739 38.5098 43.8826 36.904 45.4356C35.336 46.9401 33.9457 47.5435 32.5624 47.457L32.5615 47.457C31.5501 47.3957 30.5713 47.1519 29.1361 46.5735L29.1352 46.5732C27.9271 46.0889 27.4034 45.9121 26.8703 45.8368M32.1736 12.0992L26.8 46.3318M32.1736 12.0992C31.6936 12.1234 30.7426 12.3246 29.6151 12.6367C28.5029 12.9447 27.2673 13.3469 26.2386 13.7497M32.1736 12.0992L32.1484 11.5998M26.8703 45.8368C26.8702 45.8368 26.87 45.8368 26.8699 45.8367L26.8 46.3318M26.8703 45.8368C26.8704 45.8368 26.8706 45.8368 26.8707 45.8369L26.8 46.3318M26.8703 45.8368C26.6446 45.8045 26.2234 45.7398 25.9379 45.6958M26.8 46.3318C26.5703 46.299 26.1437 46.2334 25.8593 46.1896M25.9379 45.6958C25.9388 45.696 25.9396 45.6961 25.9405 45.6963L25.8593 46.1896M25.9379 45.6958C25.074 45.5539 24.4603 45.5355 23.7882 45.6784M25.9379 45.6958C25.9371 45.6957 25.9362 45.6956 25.9354 45.6955L25.8593 46.1896M25.8593 46.1896L23.7882 45.6784M23.7882 45.6784C23.7888 45.6782 23.7894 45.6781 23.7899 45.678L23.8906 46.1678L23.7864 45.6787C23.7871 45.6786 23.7876 45.6785 23.7882 45.6784ZM23.7882 45.6784C22.8125 45.8789 22.2817 45.9895 21.8611 46.1084C21.4287 46.2306 21.1139 46.361 20.5746 46.5871L20.5742 46.5873C18.883 47.2983 18.052 47.4998 17.0273 47.4998H17.0242V47.4998C16.6076 47.5024 16.3317 47.4786 16.0567 47.4096C15.7761 47.3392 15.472 47.2156 15.0055 46.9877M23.7882 45.6784L20.7679 47.0482C19.0508 47.7701 18.1484 47.9998 17.0273 47.9998C16.1523 48.0053 15.7367 47.9014 14.7851 47.4365M15.0055 46.9877C15.0058 46.9878 15.0061 46.988 15.0064 46.9881L14.7851 47.4365M15.0055 46.9877C15.0052 46.9876 15.0049 46.9874 15.0046 46.9873L14.7851 47.4365M15.0055 46.9877C14.2192 46.5996 13.6685 46.1971 12.966 45.4791L12.9648 45.4779C12.2848 44.7874 11.815 44.2087 10.8639 42.899M14.7851 47.4365C13.9429 47.0209 13.3468 46.5834 12.6086 45.8287C11.9031 45.1123 11.4164 44.5107 10.4593 43.1928M32.1484 11.5998C31.0656 11.6545 28.1508 12.4639 26.0562 13.2842M32.1484 11.5998C33.0234 11.5506 34.4015 11.6654 35.3258 11.8623L32.1484 11.5998ZM26.0562 13.2842L26.2388 13.7496L26.2386 13.7497M26.0562 13.2842C24.99 13.7024 24.8198 13.7691 24.6433 13.8058C24.6098 13.8127 24.5761 13.8186 24.5359 13.8256L26.0562 13.2842ZM26.2386 13.7497L26.0935 13.8066C24.9912 14.2391 24.9235 14.2657 24.6216 14.3182L24.6216 14.3182L24.6161 14.3191C24.429 14.3495 24.2184 14.3341 24.0069 14.2999C23.7884 14.2646 23.5342 14.2032 23.2462 14.1188C22.6704 13.9501 21.9247 13.6794 20.9978 13.3054M26.2386 13.7497L20.9978 13.3054M20.9978 13.3054C20.0519 12.9303 19.0731 12.6419 17.6021 12.3066C17.3336 12.2479 16.9559 12.2116 16.5856 12.2064C16.2041 12.2011 15.8928 12.2299 15.7405 12.2726L15.737 12.2736C15.5309 12.3298 14.9421 12.4478 14.4284 12.5353C13.3599 12.7258 12.7836 12.9049 12.004 13.2896L12.0021 13.2906C9.60153 14.4621 7.96567 16.137 6.65329 18.8041L6.65268 18.8054C6.06606 19.9893 5.63528 21.1437 5.31597 22.373L20.9978 13.3054ZM10.4593 43.1928L10.8642 42.8993C10.8641 42.8992 10.864 42.8991 10.8639 42.899M10.4593 43.1928L10.8639 42.899M10.4593 43.1928C8.12419 39.9717 7.76325 39.3373 6.62028 36.4662C6.16716 35.3288 5.97954 34.8662 5.82891 34.3919C5.70866 34.0132 5.61198 33.627 5.42263 32.8842C4.96325 31.074 4.91403 30.8771 4.91403 30.6146L5.90718 32.7609M10.8639 42.899C9.69472 41.2862 9.03652 40.3434 8.52702 39.4504C8.02055 38.5628 7.65529 37.7142 7.08483 36.2813L7.08478 36.2812C6.63371 35.1489 6.45006 34.6969 6.30312 34.2332C6.18648 33.8651 6.09297 33.4897 5.90718 32.7609M5.90718 32.7609C5.67655 31.8521 5.55163 31.3589 5.48375 31.0587C5.41739 30.7653 5.41403 30.6919 5.41403 30.6146C5.41403 30.4311 5.35363 30.0664 5.30003 29.8037L5.29869 29.7972L5.29865 29.7972C5.07104 28.7533 4.95609 27.347 4.96012 25.9622C4.96417 24.5739 5.08772 23.2528 5.31594 22.3732L5.90718 32.7609ZM43.0565 35.4199C43.0584 35.4231 43.0596 35.4247 43.0597 35.4247C43.0599 35.4247 43.0589 35.4232 43.0565 35.4199Z" stroke="black"/>
</g>
<defs>
<filter id="filter0_ddd_5_29" x="19.5953" y="0.243637" width="18.1555" height="19.4995" filterUnits="userSpaceOnUse" color-interpolation-filters="sRGB">
<feFlood flood-opacity="0" result="BackgroundImageFix"/>
<feColorMatrix in="SourceAlpha" type="matrix" values="0 0 0 0 0 0 0 0 0 0 0 0 0 0 0 0 0 0 127 0" result="hardAlpha"/>
<feOffset dy="4"/>
<feGaussianBlur stdDeviation="2"/>
<feComposite in2="hardAlpha" operator="out"/>
<feColorMatrix type="matrix" values="0 0 0 0 0 0 0 0 0 0 0 0 0 0 0 0 0 0 0.25 0"/>
<feBlend mode="normal" in2="BackgroundImageFix" result="effect1_dropShadow_5_29"/>
<feColorMatrix in="SourceAlpha" type="matrix" values="0 0 0 0 0 0 0 0 0 0 0 0 0 0 0 0 0 0 127 0" result="hardAlpha"/>
<feOffset dy="4"/>
<feGaussianBlur stdDeviation="2"/>
<feComposite in2="hardAlpha" operator="out"/>
<feColorMatrix type="matrix" values="0 0 0 0 0 0 0 0 0 0 0 0 0 0 0 0 0 0 0.25 0"/>
<feBlend mode="normal" in2="effect1_dropShadow_5_29" result="effect2_dropShadow_5_29"/>
<feColorMatrix in="SourceAlpha" type="matrix" values="0 0 0 0 0 0 0 0 0 0 0 0 0 0 0 0 0 0 127 0" result="hardAlpha"/>
<feOffset dy="4"/>
<feGaussianBlur stdDeviation="2"/>
<feComposite in2="hardAlpha" operator="out"/>
<feColorMatrix type="matrix" values="0 0 0 0 0 0 0 0 0 0 0 0 0 0 0 0 0 0 0.25 0"/>
<feBlend mode="normal" in2="effect2_dropShadow_5_29" result="effect3_dropShadow_5_29"/>
<feBlend mode="normal" in="SourceGraphic" in2="effect3_dropShadow_5_29" result="shape"/>
</filter>
<filter id="filter1_ddd_5_29" x="0.460022" y="11.5884" width="47.0634" height="44.4116" filterUnits="userSpaceOnUse" color-interpolation-filters="sRGB">
<feFlood flood-opacity="0" result="BackgroundImageFix"/>
<feColorMatrix in="SourceAlpha" type="matrix" values="0 0 0 0 0 0 0 0 0 0 0 0 0 0 0 0 0 0 127 0" result="hardAlpha"/>
<feOffset dy="4"/>
<feGaussianBlur stdDeviation="2"/>
<feComposite in2="hardAlpha" operator="out"/>
<feColorMatrix type="matrix" values="0 0 0 0 0 0 0 0 0 0 0 0 0 0 0 0 0 0 0.25 0"/>
<feBlend mode="normal" in2="BackgroundImageFix" result="effect1_dropShadow_5_29"/>
<feColorMatrix in="SourceAlpha" type="matrix" values="0 0 0 0 0 0 0 0 0 0 0 0 0 0 0 0 0 0 127 0" result="hardAlpha"/>
<feOffset dy="4"/>
<feGaussianBlur stdDeviation="2"/>
<feComposite in2="hardAlpha" operator="out"/>
<feColorMatrix type="matrix" values="0 0 0 0 0 0 0 0 0 0 0 0 0 0 0 0 0 0 0.25 0"/>
<feBlend mode="normal" in2="effect1_dropShadow_5_29" result="effect2_dropShadow_5_29"/>
<feColorMatrix in="SourceAlpha" type="matrix" values="0 0 0 0 0 0 0 0 0 0 0 0 0 0 0 0 0 0 127 0" result="hardAlpha"/>
<feOffset dy="4"/>
<feGaussianBlur stdDeviation="2"/>
<feComposite in2="hardAlpha" operator="out"/>
<feColorMatrix type="matrix" values="0 0 0 0 0 0 0 0 0 0 0 0 0 0 0 0 0 0 0.25 0"/>
<feBlend mode="normal" in2="effect2_dropShadow_5_29" result="effect3_dropShadow_5_29"/>
<feBlend mode="normal" in="SourceGraphic" in2="effect3_dropShadow_5_29" result="shape"/>
</filter>
</defs>
</svg>
